<svg id="horse_x5F_pose1" enable-background="new 0 0 300 300" height="512" viewBox="0 0 300 300" width="512" xmlns="http://www.w3.org/2000/svg"><g><path d="m270.017 201.859-6.359-9.538c-5.193-7.79-9.581-22.28-9.581-31.643v-17.762c0-12.893-10.489-23.381-23.381-23.381h-17.154c-.038-.028-.073-.058-.111-.086-11.791-8.649-27.488-7.568-35.795-6.153-3.688.628-7.065.934-10.324.934h-22.782c-3.958 0-7.868-.635-11.622-1.886l-8.584-2.861c-2.317-.772-3.955-2.868-4.171-5.339-1.949-22.271-13.067-38.351-22.052-47.919-4.502-4.795-10.125-8.476-16.427-10.781.482-3.536-.369-6.304-1.332-8.18-3.594-6.997-12.309-9.361-13.291-9.607-1.21-.305-2.489-.026-3.465.75-.975.776-1.533 1.962-1.508 3.208l.108 5.492c-1.369-1.861-3.378-3.677-6.32-5.148-1.976-.988-4.379-.187-5.367 1.789s-.187 4.379 1.789 5.367c3.901 1.95 4.63 4.753 4.736 6.156-5.026 3-8.505 8.335-8.916 14.499l-16.833 26.436c-3.681 5.781-2.036 13.578 3.667 17.38 4.361 2.907 9.963 2.856 14.271-.129.146-.101.284-.211.416-.331l18.028-16.422c.39.177.729.458 1.059.86 3.769 4.594 2.826 20.007.94 29.644-4.303 13.026-7.357 31.806 2.234 47.792.446.744.906 1.446 1.372 2.125l-17.436 8.317c-5.921 2.824-9.747 8.889-9.747 15.449v38.648c0 .02.012.033.013.052.021 1.489.862 2.909 2.304 3.577l15.427 7.154c.544.252 1.117.372 1.68.372 1.509 0 2.955-.859 3.631-2.318.929-2.004.058-4.382-1.946-5.312l-12.494-5.794 6.329-27.939c.895-3.696 3.893-6.517 7.637-7.187l19.088-3.414 17.762 57.56-13.213 12.065c-1.631 1.489-1.746 4.02-.256 5.651.789.864 1.87 1.303 2.955 1.303.963 0 1.929-.346 2.696-1.046l15.085-13.775c.855-.781 1.282-1.848 1.291-2.922.001-.012.012-.019.012-.032v-67.434c18.208 2.227 31.516 1.539 41.06-.201l5.584 18.7c.915 3.064.423 6.348-1.351 9.008l-24.769 37.154c-.001.002-.003.004-.004.007l-.009.014c-.006.009-.007.017-.012.026-.415.63-.66 1.382-.66 2.193v14.308c0 2.209 1.791 4 4 4s4-1.791 4-4v-12.651l34.599-34.599c.229-.229.429-.484.596-.761l7.942-13.155c1.267 1.184 2.603 2.346 4.02 3.48 6.794 5.436 13.542 8.89 16.836 10.416l5.544 29.948-5.876 23.505c-.536 2.143.767 4.315 2.91 4.851.326.082.652.121.973.121 1.792 0 3.423-1.213 3.877-3.031l6.087-24.349 6.798-27.194c1.149-4.595.615-9.458-1.503-13.693l-10.791-21.582 10.47-20.939c.671-1.342 1.228-2.723 1.679-4.132v17.991c0 24.481 38.225 32.155 39.852 32.47.254.049.508.073.76.073 1.322 0 2.58-.657 3.33-1.785.891-1.343.89-3.092-.005-4.434zm-43.987-62.841c-.323-1.252-.692-2.461-1.104-3.629.624 1.101 1.007 2.334 1.104 3.629zm-158.78 45.253c-5.965 1.067-10.896 5.111-13.172 10.636v-4.015c0-3.495 2.038-6.724 5.191-8.229l19.324-9.218c2.356 2.279 4.501 3.807 5.881 4.68l.896 2.904zm103.263 24.477-6.862 6.862 2.375-3.563c3.098-4.647 3.959-10.382 2.36-15.735l-5.455-18.268c3.019-.913 5.463-1.906 7.395-2.851 1.246 6.624 4.302 12.977 9.05 18.873zm46.73-50.65-11.364 22.729c-.563 1.126-.563 2.452 0 3.578l11.686 23.371c1.265 2.528 1.583 5.432.897 8.175l-2.335 9.339-2.737-14.786c-.25-1.349-1.173-2.476-2.448-2.986-.207-.083-13.01-5.323-22.668-15.429-.269-.425-.6-.785-.985-1.071-5.405-5.991-9.602-13.573-9.602-22.71 0-1.64-1.001-3.114-2.526-3.718-.479-.19-.978-.282-1.473-.282-1.083 0-2.143.439-2.914 1.259-.121.128-13.417 12.683-60.13 6.008-1.148-.161-2.31.179-3.187.938-.876.76-1.379 1.862-1.379 3.022v45.471l-14.418-46.723c-.318-1.029-1.056-1.897-2.015-2.389-1.038-.533-25.284-13.509-12.32-52.399.052-.158.095-.318.127-.48.55-2.75 5.149-27.129-2.55-36.521-2.163-2.639-5.111-4.034-8.526-4.034-.997 0-1.957.372-2.694 1.043l-19.215 17.503c-1.566.979-3.54.956-5.088-.077-2.109-1.406-2.717-4.289-1.356-6.426l17.418-27.357c.409-.642.626-1.387.626-2.148 0-5.684 4.624-10.308 10.308-10.308 1.075 0 2.104-.432 2.856-1.2.752-.767 1.165-1.805 1.143-2.879l-.174-8.852c1.247.844 2.386 1.904 3.035 3.178.812 1.595.776 3.46-.109 5.703-.418 1.061-.365 2.25.148 3.268s1.436 1.769 2.538 2.064c6.399 1.713 12.089 5.077 16.456 9.728 8.12 8.646 18.166 23.15 19.914 43.14.495 5.649 4.267 10.45 9.611 12.231l8.583 2.861c4.571 1.524 9.333 2.296 14.152 2.296h22.782c3.714 0 7.531-.342 11.667-1.047 7.058-1.202 20.307-2.189 29.719 4.717 5.756 4.224 9.307 10.979 10.553 20.077.571 4.165-.123 8.357-2.006 12.123zm32.758 36.096c-10.566-5.172-15.924-11.45-15.924-18.658v-35.872c0-4.648-1.953-9.021-5.225-12.128h1.844c8.481 0 15.381 6.9 15.381 15.381v17.762c0 11.043 4.798 26.892 10.924 36.08l.333.499c-2.315-.826-4.832-1.84-7.333-3.064z"/></g></svg>